<svg xmlns="http://www.w3.org/2000/svg" width="1024" height="1024" viewBox="0 0 1024 1024" version="1.1">
	<path d="M 0 512.001 L 0 1024.002 512.250 1023.751 L 1024.500 1023.500 1024.751 511.750 L 1025.002 0 512.501 0 L 0 0 0 512.001 M 0.496 512.500 C 0.496 794.100, 0.610 909.151, 0.750 768.168 C 0.890 627.186, 0.890 396.786, 0.750 256.168 C 0.610 115.551, 0.496 230.900, 0.496 512.500 M 216.203 216.197 C 215.271 217.129, 215 282.066, 215 504.093 C 215 764.597, 215.144 790.841, 216.582 791.393 C 217.452 791.727, 240.572 792, 267.959 792 C 308.545 792, 317.962 791.750, 318.876 790.650 C 319.695 789.663, 320.064 721.617, 320.248 537.510 L 320.500 285.721 325 284.286 C 327.475 283.497, 331.975 282.253, 335 281.521 C 338.025 280.790, 341.962 279.698, 343.750 279.096 C 345.538 278.493, 348.462 277.502, 350.250 276.893 C 352.038 276.284, 355.300 275.442, 357.500 275.023 C 359.700 274.603, 363.173 273.526, 365.218 272.630 C 367.263 271.733, 370.249 271, 371.854 271 C 373.458 271, 376.060 270.328, 377.636 269.506 C 379.211 268.685, 381.286 268.010, 382.246 268.006 C 383.206 268.003, 386.581 267.168, 389.746 266.151 C 401.205 262.468, 425.151 255.573, 437 252.544 C 440.575 251.630, 444.850 250.413, 446.500 249.839 C 449.842 248.677, 456.325 246.903, 465.828 244.552 C 469.309 243.691, 473.015 242.527, 474.064 241.966 C 475.113 241.404, 477.890 240.559, 480.236 240.088 C 482.581 239.616, 486.975 238.522, 490 237.658 C 493.025 236.793, 500.450 234.698, 506.500 233.004 C 512.550 231.309, 518.850 229.447, 520.500 228.865 C 522.150 228.284, 525.300 227.432, 527.500 226.972 C 529.700 226.513, 535.775 224.791, 541 223.147 C 546.225 221.502, 552.664 219.865, 555.310 219.508 C 559.087 218.999, 560.050 218.499, 559.796 217.180 C 559.495 215.616, 547.689 215.483, 388.439 215.247 C 256.240 215.052, 217.133 215.267, 216.203 216.197 M 580 300.589 C 578.625 301.349, 576.764 301.977, 575.864 301.985 C 574.965 301.993, 572.940 302.672, 571.364 303.494 C 569.789 304.315, 567.711 304.990, 566.746 304.994 C 565.782 304.997, 563.314 305.900, 561.261 307 C 559.209 308.100, 556.848 309.014, 556.015 309.032 C 555.182 309.049, 553.626 309.724, 552.559 310.532 C 551.491 311.339, 549.466 312.003, 548.059 312.006 C 546.651 312.010, 544.211 312.685, 542.636 313.506 C 541.060 314.328, 539.162 315, 538.416 315 C 537.671 315, 535.344 315.895, 533.244 316.990 C 531.144 318.084, 527.305 319.271, 524.713 319.626 C 519.732 320.309, 519.414 319.984, 519.949 314.743 C 520.196 312.321, 517.411 311.482, 514.186 313.008 C 512.709 313.707, 509.925 314.625, 508 315.048 C 506.075 315.470, 501.191 317.208, 497.146 318.908 C 493.102 320.609, 489.169 322, 488.406 322 C 487.643 322, 484.741 322.995, 481.957 324.210 C 476.925 326.408, 476.899 326.442, 477.531 330.181 C 478.079 333.425, 477.791 334.290, 475.437 336.471 C 473.936 337.862, 472.174 339, 471.522 339 C 469.896 339, 457.183 342.805, 453.500 344.394 C 449.449 346.142, 444.327 347.985, 439.500 349.432 C 437.300 350.091, 434.375 351.101, 433 351.677 C 429.905 352.972, 424.931 354.695, 418.870 356.572 C 416.323 357.361, 413.753 358.593, 413.158 359.310 C 411.772 360.980, 411.439 396.839, 412.797 398.197 C 413.414 398.814, 416.046 398.266, 420.130 396.669 C 423.633 395.299, 429.650 393.191, 433.500 391.984 C 443.140 388.961, 450.358 385.966, 451.235 384.624 C 451.639 384.006, 451.976 380.962, 451.985 377.861 C 452.004 370.892, 453.689 368.669, 460.500 366.632 C 463.250 365.809, 467.975 364.180, 471 363.013 C 474.025 361.845, 482.800 358.824, 490.500 356.299 C 498.200 353.775, 505.850 351.137, 507.500 350.438 C 509.150 349.739, 513.200 348.240, 516.500 347.105 C 527.346 343.377, 530.463 342.182, 533.500 340.588 C 536.623 338.948, 542.724 338.494, 544.562 339.765 C 545.147 340.169, 545.597 343.200, 545.562 346.500 C 545.506 351.909, 545.697 352.483, 547.500 352.327 C 549.776 352.130, 557.962 349.464, 562.651 347.392 C 564.384 346.627, 566.325 346, 566.963 346 C 569.327 346, 583.123 338.639, 584.068 336.874 C 585.367 334.446, 584.841 299.743, 583.500 299.436 C 582.950 299.311, 581.375 299.829, 580 300.589 M 777 333.412 C 773.425 334.709, 768.250 336.554, 765.500 337.511 C 762.750 338.468, 757.800 340.227, 754.500 341.419 L 748.500 343.586 748.352 370.852 C 748.218 395.328, 748.024 398.317, 746.447 400.059 C 745.481 401.127, 743.972 402.014, 743.095 402.032 C 742.218 402.049, 740.626 402.724, 739.559 403.532 C 738.491 404.339, 736.679 405, 735.531 405 C 734.384 405, 732.439 405.704, 731.210 406.565 C 729.981 407.426, 727.744 407.989, 726.238 407.815 L 723.500 407.500 723.235 377.250 L 722.971 347 720.685 347 C 719.428 347, 717.954 347.446, 717.409 347.991 C 716.864 348.536, 714.411 349.414, 711.959 349.943 C 707.669 350.866, 689.558 356.935, 687.500 358.139 C 686.950 358.460, 685.263 359.019, 683.750 359.381 L 681 360.038 681 391.540 L 681 423.043 678.750 423.922 C 677.513 424.405, 673.057 426.237, 668.848 427.992 C 656.688 433.065, 657.544 434.832, 657.233 404.020 C 657.086 389.470, 656.576 377.176, 656.100 376.700 C 655.162 375.762, 642.863 379.455, 631.500 384.086 C 627.650 385.654, 623.294 387.218, 621.820 387.560 C 619.364 388.130, 619.088 388.697, 618.518 394.341 C 618.177 397.728, 618.033 415.794, 618.199 434.487 C 618.539 472.882, 618.087 471.073, 626.339 467.078 C 628.700 465.935, 631.373 465, 632.279 465 C 633.185 465, 636.305 464.050, 639.213 462.889 C 646.325 460.050, 665.654 453.101, 670 451.822 C 671.925 451.256, 674.038 450.354, 674.695 449.819 C 675.352 449.284, 676.927 448.994, 678.195 449.173 L 680.500 449.500 680.764 480.040 C 680.967 503.451, 680.733 510.964, 679.764 512.229 C 679.069 513.137, 675.350 514.672, 671.500 515.640 C 667.650 516.608, 663.746 518.024, 662.824 518.788 C 661.903 519.551, 660.328 520.018, 659.324 519.825 C 657.627 519.499, 657.465 517.593, 657 492.500 C 656.560 468.783, 656.306 465.489, 654.895 465.217 C 654.012 465.048, 649.059 466.494, 643.889 468.431 C 638.718 470.368, 632.915 472.213, 630.994 472.532 C 629.072 472.851, 625.628 474.068, 623.340 475.236 L 619.181 477.360 618.529 489.430 C 618.171 496.068, 618.018 514.100, 618.189 529.500 C 618.492 556.794, 618.550 557.496, 620.500 557.335 C 622.270 557.189, 638.421 551.635, 649.500 547.363 C 651.700 546.514, 655.300 545.358, 657.500 544.792 C 659.700 544.227, 662.338 543.333, 663.361 542.804 C 664.385 542.276, 668.435 540.759, 672.361 539.434 C 683.805 535.570, 689.347 533.497, 691.684 532.206 C 692.886 531.543, 695.361 530.997, 697.184 530.993 C 699.008 530.990, 701.850 530.093, 703.500 529 C 705.150 527.907, 707.231 527.010, 708.124 527.007 C 709.018 527.003, 713.518 525.506, 718.124 523.680 C 722.731 521.855, 729.425 519.572, 733 518.608 C 736.575 517.644, 740.850 516.158, 742.500 515.306 C 744.150 514.454, 748.200 512.960, 751.500 511.986 C 754.800 511.013, 761.084 508.820, 765.464 507.113 C 769.844 505.407, 774.821 503.749, 776.524 503.430 C 778.456 503.067, 780.726 501.467, 782.560 499.174 L 785.500 495.500 785.761 458.500 C 785.907 437.662, 785.626 420.895, 785.118 420.114 C 784.379 418.982, 783.041 419.301, 777.778 421.864 C 774.238 423.589, 770.703 424.998, 769.921 424.995 C 768.312 424.989, 761.027 427.322, 753.265 430.328 L 748.030 432.356 747.765 460.772 L 747.500 489.189 740 491.563 C 735.875 492.869, 731.600 494.383, 730.500 494.929 C 728.447 495.947, 726.449 496.327, 724.250 496.118 C 723.280 496.027, 723.003 489.229, 723.015 465.750 C 723.024 449.113, 723.367 434.971, 723.778 434.326 C 724.189 433.680, 729.694 431.279, 736.012 428.990 C 742.331 426.701, 751.550 423.348, 756.500 421.538 C 761.450 419.728, 768.992 417.179, 773.260 415.873 C 779.822 413.866, 781.416 412.933, 783.592 409.828 L 786.164 406.156 785.886 370.001 C 785.707 346.639, 785.235 333.353, 784.554 332.450 C 783.666 331.274, 782.475 331.426, 777 333.412 M 578.670 360.251 C 574.523 362.406, 548.962 371.511, 542.582 373.106 C 540.427 373.645, 537.502 374.685, 536.082 375.417 C 534.662 376.150, 531.025 377.521, 528 378.465 C 524.975 379.409, 521.150 380.794, 519.500 381.543 C 517.850 382.291, 512.450 384.118, 507.500 385.601 C 502.550 387.085, 497.375 388.867, 496 389.561 C 494.625 390.255, 490.800 391.602, 487.500 392.553 C 484.200 393.505, 479.779 395.146, 477.676 396.200 C 475.573 397.253, 472.423 397.977, 470.676 397.808 C 467.586 397.508, 467.492 397.355, 467.194 392.145 C 466.896 386.929, 466.818 386.802, 464.194 387.284 C 462.712 387.555, 458.350 388.982, 454.500 390.453 C 450.650 391.925, 445.700 393.817, 443.500 394.657 C 441.300 395.498, 437.296 396.811, 434.601 397.575 C 431.907 398.339, 429.470 399.197, 429.186 399.481 C 428.902 399.765, 428.289 402.810, 427.825 406.249 C 426.845 413.497, 425.677 414.709, 418.788 415.623 C 415.828 416.015, 413.602 416.899, 413.095 417.884 C 411.560 420.864, 409.705 442.105, 410.877 443.277 C 412.351 444.751, 417.863 444.611, 421.603 443.005 C 427.682 440.394, 428.018 441.232, 427.324 457.297 C 426.982 465.207, 427 472.865, 427.364 474.315 L 428.026 476.952 438.865 476.332 C 446.560 475.891, 449.910 476.045, 450.415 476.863 C 450.825 477.525, 450.357 478.283, 449.313 478.647 C 448.316 478.996, 443.675 481.051, 439 483.215 C 434.325 485.379, 429.150 487.746, 427.500 488.475 C 415.714 493.683, 413.075 495.189, 412.486 497.045 C 412.128 498.173, 412.283 499.637, 412.832 500.298 C 413.674 501.313, 415.718 510.054, 417.732 521.250 C 418.287 524.332, 421.113 524.941, 424.527 522.713 C 425.612 522.005, 429.200 520.395, 432.500 519.136 C 443.190 515.054, 473.236 500.403, 478.134 496.883 C 479.958 495.572, 484.032 492.925, 487.188 491 C 490.343 489.075, 496.749 484.844, 501.421 481.598 L 509.917 475.696 522.208 474.871 C 528.969 474.417, 543.164 473.742, 553.754 473.371 C 565.763 472.950, 573.330 472.283, 573.866 471.598 C 574.338 470.994, 575.440 468.025, 576.314 465 C 577.187 461.975, 579.098 455.450, 580.560 450.500 C 584.810 436.108, 586.316 437.437, 566.270 437.884 C 545.380 438.350, 545.422 438.381, 552.755 427.733 C 555.495 423.755, 558.956 418.025, 560.446 415 C 561.937 411.975, 563.766 408.375, 564.511 407 C 565.257 405.625, 566.848 402.025, 568.048 399 C 570.824 391.999, 571.360 391.377, 576.600 389.059 C 585.478 385.131, 588.189 380.856, 586.333 373.704 C 585.600 370.877, 585 366.187, 585 363.282 C 585 357.356, 584.605 357.167, 578.670 360.251 M 521.500 407.684 C 520.400 407.933, 518.082 408.780, 516.349 409.568 C 514.616 410.356, 512.659 411, 512 411 C 511.341 411, 509.384 411.624, 507.651 412.386 C 503.686 414.130, 495.545 417.069, 486.500 420.021 C 482.650 421.278, 479.050 422.647, 478.500 423.063 C 477.950 423.480, 475.801 424.138, 473.726 424.526 C 469.038 425.402, 467 428.178, 467 433.687 C 467 436.926, 467.480 438.186, 469.028 439.015 C 471.138 440.144, 483.165 440.246, 498.332 439.262 L 507.163 438.689 512.832 431.604 C 515.949 427.707, 519.063 423.502, 519.750 422.259 C 522.684 416.957, 523.635 415.351, 525.386 412.745 C 526.884 410.515, 527 409.705, 525.996 408.495 C 525.313 407.673, 524.473 407.052, 524.128 407.116 C 523.782 407.180, 522.600 407.435, 521.500 407.684 M 529 503.464 C 527.075 504.778, 524.150 506.163, 522.500 506.542 C 520.850 506.921, 518.375 507.836, 517 508.575 C 515.625 509.315, 512.170 510.879, 509.322 512.052 C 506.473 513.225, 503.920 514.765, 503.648 515.474 C 503.376 516.183, 503.565 522.104, 504.068 528.632 C 504.571 535.159, 505.447 547.925, 506.014 557 C 506.582 566.075, 507.494 576.307, 508.040 579.737 C 508.587 583.167, 509.253 590.796, 509.520 596.690 C 509.788 602.584, 510.463 607.863, 511.021 608.421 C 511.707 609.107, 513.082 608.918, 515.268 607.838 C 520.460 605.272, 537.740 598, 538.659 597.995 C 539.122 597.992, 540.755 596.980, 542.289 595.745 C 545.061 593.513, 545.071 593.459, 544.096 586.500 C 543.556 582.650, 542.834 573.875, 542.492 567 C 542.149 560.125, 541.440 552.302, 540.916 549.615 C 540.392 546.929, 539.487 536.579, 538.905 526.615 C 538.323 516.652, 537.525 506.925, 537.132 505 C 536.241 500.628, 533.822 500.171, 529 503.464 M 357.584 519.783 C 350.524 524.681, 347.059 533.850, 350.532 538.441 C 351.339 539.509, 352 541.135, 352 542.055 C 352 542.975, 353.688 544.865, 355.750 546.256 C 365.299 552.692, 375.799 549.491, 379.494 539.016 C 381.327 533.821, 381.392 530.981, 379.750 527.833 C 374.371 517.522, 365.491 514.297, 357.584 519.783 M 784.768 528.660 C 783.234 530.195, 778.310 532.382, 773.500 533.665 C 772.400 533.959, 767.675 535.658, 763 537.442 C 758.325 539.225, 751.125 541.722, 747 542.989 C 739.969 545.150, 727.971 549.406, 720 552.566 C 716.522 553.945, 714.220 554.765, 700.163 559.632 C 696.127 561.030, 691.849 561.928, 690.654 561.628 C 689.460 561.328, 687.974 561.402, 687.352 561.792 C 686.730 562.181, 685.457 566.993, 684.524 572.486 C 683.590 577.978, 682.637 582.779, 682.404 583.155 C 682.172 583.531, 682.705 584.562, 683.589 585.446 C 686.020 587.877, 691.306 586.792, 710 580.022 C 716.325 577.731, 722.625 575.628, 724 575.347 C 725.375 575.067, 727.850 574.255, 729.500 573.542 C 733.033 572.015, 737.772 570.356, 744 568.465 C 753.770 565.498, 779.987 556.046, 783.636 554.176 C 785.761 553.086, 788.568 551.050, 789.873 549.652 C 792.203 547.155, 792.224 546.959, 791.035 538.823 C 789.348 527.286, 788.125 525.303, 784.768 528.660 M 576.500 542.677 C 567.416 546.531, 564.309 547.864, 560.750 549.431 C 558.962 550.219, 556.487 551.149, 555.249 551.499 C 554.011 551.849, 552.588 552.900, 552.088 553.835 C 551.226 555.447, 552.425 575.021, 554.974 600.924 C 555.538 606.657, 556 614.569, 556 618.507 C 556 631.904, 558.894 640.506, 562.267 637.133 C 562.890 636.510, 564.033 636, 564.807 636 C 565.581 636, 568.978 634.705, 572.357 633.122 C 575.736 631.539, 581.415 629.095, 584.978 627.692 L 591.455 625.140 591.177 617.320 C 591.024 613.019, 590.502 607.025, 590.018 604 C 589.534 600.975, 588.864 592.650, 588.528 585.500 C 587.901 572.127, 586.364 551.763, 585.415 544.250 C 585.114 541.875, 584.353 540.029, 583.689 540.066 C 583.035 540.102, 579.800 541.277, 576.500 542.677 M 491 550.500 C 489.625 551.286, 487.764 551.945, 486.864 551.965 C 485.965 551.984, 483.940 552.672, 482.364 553.494 C 480.789 554.315, 478.668 554.990, 477.651 554.994 C 476.634 554.997, 474.384 555.631, 472.651 556.403 C 470.918 557.175, 466.575 558.885, 463 560.203 L 456.500 562.599 456.469 609.550 C 456.452 635.372, 456.324 666.850, 456.185 679.500 C 456.045 692.150, 455.947 703.063, 455.966 703.750 C 456.017 705.628, 459.714 705.197, 467.500 702.404 C 471.350 701.024, 476.525 699.294, 479 698.562 C 481.475 697.829, 484.850 696.681, 486.500 696.010 C 490.250 694.486, 515.489 685.540, 523.380 682.939 C 526.614 681.872, 530.075 681, 531.071 681 C 532.067 681, 533.149 680.569, 533.474 680.042 C 533.800 679.514, 536.706 678.121, 539.931 676.945 C 543.276 675.725, 547.201 673.356, 549.068 671.430 L 552.340 668.054 550.670 661.134 C 549.752 657.328, 549 653.292, 549 652.166 C 549 648.896, 547.332 648.708, 542.251 651.405 C 539.638 652.792, 534.125 654.908, 530 656.106 C 525.875 657.305, 521.612 658.896, 520.527 659.643 C 519.443 660.389, 517.711 661, 516.679 661 C 515.647 661, 513.384 661.617, 511.651 662.370 C 505.284 665.140, 499.973 666.373, 498.926 665.326 C 498.264 664.664, 497.934 644.898, 497.975 608.286 C 498.009 577.471, 497.755 551.526, 497.411 550.630 C 496.649 548.642, 494.332 548.595, 491 550.500 M 661 573.563 C 659.075 574.291, 655.025 574.941, 652 575.006 C 648.975 575.072, 643.125 575.660, 639.001 576.313 C 630.460 577.665, 631.385 576.568, 624.500 593.500 C 620.140 604.222, 618.082 608.972, 616.921 611 C 614.966 614.411, 612 621.339, 612 622.492 C 612 623.173, 611.056 624.930, 609.903 626.396 C 608.369 628.346, 608.092 629.405, 608.869 630.342 C 609.732 631.382, 612.612 631.373, 624.216 630.296 C 632.072 629.567, 639.536 628.738, 640.803 628.453 C 642.638 628.040, 644.820 624.416, 651.553 610.593 C 656.199 601.055, 660 592.906, 660 592.485 C 660 592.064, 660.851 589.870, 661.891 587.610 C 665.988 578.706, 667.230 575.043, 666.659 573.554 C 665.975 571.771, 665.734 571.772, 661 573.563 M 441.897 589.437 C 441.656 589.677, 436.069 591.267, 429.480 592.970 C 421.879 594.935, 416.915 596.758, 415.900 597.958 C 413.641 600.630, 412.671 611.869, 408.993 678 C 408.397 688.725, 407.560 700.358, 407.133 703.850 C 406.205 711.454, 406.771 711.920, 414.293 709.734 C 417.157 708.901, 422.425 707.465, 426 706.541 C 429.575 705.618, 434.075 704.039, 436 703.033 C 439.162 701.381, 439.506 700.784, 439.565 696.852 C 439.670 689.732, 441.989 648.788, 442.501 645 C 442.761 643.075, 443.442 633.175, 444.015 623 C 444.588 612.825, 445.555 602.186, 446.164 599.357 C 447.497 593.163, 446.686 589, 444.148 589 C 443.150 589, 442.137 589.197, 441.897 589.437 M 786.500 593.469 C 784.850 594.821, 782.683 595.944, 781.684 595.964 C 780.686 595.984, 778.896 596.520, 777.708 597.156 C 776.519 597.792, 774.186 598.664, 772.524 599.094 C 768.920 600.025, 749.351 606.696, 746.500 607.966 C 745.400 608.456, 741.575 609.805, 738 610.963 C 734.425 612.122, 730.150 613.669, 728.500 614.401 C 725.229 615.853, 717.253 618.637, 712.500 619.986 C 710.850 620.455, 704.325 622.743, 698 625.072 C 691.675 627.401, 685.242 629.254, 683.705 629.190 C 682.167 629.126, 680.762 629.619, 680.583 630.287 C 679.804 633.182, 677.077 645.764, 676.626 648.547 C 676.354 650.223, 676.536 652.248, 677.031 653.047 C 678.468 655.369, 686.692 654.603, 692.659 651.591 C 695.496 650.158, 699.321 648.700, 701.159 648.350 C 702.996 648.001, 705.625 647.153, 707 646.467 C 712.142 643.900, 725.119 639.877, 727.269 640.183 C 729.497 640.500, 729.500 640.532, 729.782 664.500 C 729.937 677.700, 729.835 689.435, 729.556 690.579 C 728.910 693.221, 725.394 694.819, 718.421 695.638 C 714.894 696.053, 712.610 696.862, 712.062 697.893 C 711.277 699.367, 709.009 715.184, 709.003 719.231 C 708.998 722.034, 713.442 722.439, 719.772 720.213 C 722.922 719.105, 728.425 717.266, 732 716.128 C 747.085 711.324, 767.377 703.983, 769.602 702.525 L 772 700.954 772.015 663.227 C 772.024 642.477, 772.379 624.952, 772.804 624.283 C 773.230 623.613, 776.504 622.162, 780.081 621.057 C 784.025 619.839, 788.239 617.631, 790.792 615.446 C 795.536 611.385, 796.059 608.666, 793.583 600.928 C 792.804 598.493, 791.896 595.263, 791.564 593.750 C 790.827 590.382, 790.301 590.353, 786.500 593.469 M 660 631.904 C 659.175 632.368, 655.125 633.045, 651 633.408 C 640.285 634.351, 632.773 635.966, 630.746 637.763 C 629.781 638.618, 628.505 641.159, 627.911 643.409 C 627.317 645.659, 625.574 650.200, 624.038 653.500 C 622.502 656.800, 619.143 664.407, 616.573 670.405 C 614.003 676.403, 611.023 682.426, 609.950 683.790 C 608.878 685.154, 608 687.153, 608 688.233 C 608 690.036, 608.474 690.141, 613.814 689.522 C 618.239 689.008, 619.908 689.184, 620.799 690.258 C 621.625 691.254, 622.049 700.781, 622.235 722.585 L 622.500 753.500 625.147 753.806 C 626.603 753.975, 629.528 753.363, 631.647 752.446 C 633.766 751.529, 636.850 750.406, 638.500 749.951 C 640.150 749.496, 644.650 747.939, 648.500 746.490 C 652.350 745.041, 656.962 743.417, 658.750 742.881 C 660.538 742.345, 662.016 741.365, 662.036 740.703 C 662.073 739.474, 662.058 666.927, 662.021 663.750 C 662.009 662.788, 661.411 662, 660.691 662 C 659.971 662, 658.509 661.350, 657.441 660.555 C 655.538 659.138, 655.553 659.007, 658.213 653.805 C 663.700 643.075, 667.023 633.733, 665.854 632.324 C 664.611 630.827, 662.222 630.655, 660 631.904" stroke="none" fill="black" fill-rule="evenodd"/>
</svg>